<svg width="387" height="387" viewBox="0 0 387 387" fill="none" xmlns="http://www.w3.org/2000/svg">
<mask id="mask0_18_245" style="mask-type:alpha" maskUnits="userSpaceOnUse" x="11" y="-5" width="365" height="365">
<circle cx="193.5" cy="177.5" r="124.5" stroke="black" stroke-width="116"/>
</mask>
<g mask="url(#mask0_18_245)">
<path d="M75.4431 295.674L189.5 182.02V344.301L185.538 343.997C168.668 342.704 152.003 339.469 135.875 334.355L127.418 331.674C122.196 330.018 117.11 327.959 112.207 325.516C100.219 319.544 89.4736 311.35 80.5413 301.37L75.4431 295.674Z" fill="#FA00FF" stroke="black" stroke-width="5"/>
<path d="M76.4431 59.3256L190.5 172.98V10.699L186.538 11.0027C169.668 12.2958 153.003 15.5312 136.875 20.6448L128.418 23.3261C123.196 24.9819 118.11 27.0405 113.207 29.4836C101.219 35.4563 90.4736 43.65 81.5413 53.6297L76.4431 59.3256Z" fill="#FF5C00" stroke="black" stroke-width="5"/>
<path d="M28.8005 176.342L189.869 176.342L74.8736 61.347L72.3039 64.345C61.3024 77.1801 51.8238 91.2456 44.0573 106.261L39.9953 114.114C37.4775 118.982 35.3424 124.038 33.6093 129.237C29.3793 141.927 27.5985 155.306 28.3616 168.661L28.8005 176.342Z" fill="#FF0000" stroke="black" stroke-width="5"/>
<path d="M353.921 176.947L193.453 176.364L307.593 62.224L310.186 65.2455C321.182 78.0596 330.667 92.0955 338.456 107.077L342.551 114.954C345.07 119.798 347.209 124.83 348.951 130.005C353.216 142.677 355.04 156.043 354.325 169.395L353.921 176.947Z" fill="#00FF38" stroke="black" stroke-width="5"/>
<path d="M352.679 177.825L192.211 178.408L306.351 292.548L308.944 289.527C319.94 276.713 329.426 262.677 337.214 247.695L341.309 239.819C343.828 234.974 345.968 229.942 347.709 224.767C351.974 212.095 353.798 198.729 353.083 185.377L352.679 177.825Z" fill="#0500FF" stroke="black" stroke-width="5"/>
<path d="M29.4226 177.825L189.89 178.408L75.7506 292.548L73.1578 289.527C62.162 276.713 52.6763 262.677 44.8875 247.695L40.7924 239.819C38.2738 234.974 36.1341 229.942 34.3925 224.767C30.1275 212.095 28.3039 198.729 29.0185 185.377L29.4226 177.825Z" fill="#FF005C" stroke="black" stroke-width="5"/>
<path d="M305.547 294.975L191.5 181.996V343.302L195.489 342.998C212.344 341.714 228.995 338.499 245.117 333.418L253.606 330.742C258.815 329.1 263.89 327.058 268.784 324.633C280.782 318.691 291.545 310.528 300.503 300.578L305.547 294.975Z" fill="#00C0DA" stroke="black" stroke-width="5"/>
<path d="M306.547 60.0246L192.5 173.004V11.6978L196.489 12.0017C213.344 13.2861 229.995 16.5007 246.117 21.5823L254.606 24.2581C259.815 25.9001 264.89 27.9423 269.784 30.3666C281.782 36.3093 292.545 44.4717 301.503 54.4219L306.547 60.0246Z" fill="#FFCB11" stroke="black" stroke-width="5"/>
<circle cx="193.5" cy="177.5" r="162" stroke="black" stroke-width="15"/>
<path d="M263 177.5C263 215.858 231.685 247 193 247C154.314 247 123 215.858 123 177.5C123 139.142 154.314 108 193 108C231.685 108 263 139.142 263 177.5Z" fill="#A7DAFF" stroke="black" stroke-width="8"/>
</g>
</svg>
